<?xml version="1.0" encoding="UTF-8"?>
<svg id="Capa_2" xmlns="http://www.w3.org/2000/svg" viewBox="0 0 66.24 60.71">
  <defs>
    <style>
      .cls-1 {
        fill: #32b121;
      }
    </style>
  </defs>
  <g id="Capa_1-2" data-name="Capa_1">
    <path id="Trazado_52" class="cls-1" d="M44.16,33.12c0,6.1-4.94,11.04-11.04,11.04-6.1,0-11.04-4.94-11.04-11.04s4.94-11.04,11.04-11.04c6.1,0,11.04,4.95,11.04,11.04ZM18.09,4.58C19.48,1.77,22.35,0,25.49,0h15.27c3.13,0,5.99,1.78,7.39,4.58l3.24,6.46h3.81c6.1,0,11.04,4.95,11.04,11.04v27.58c0,6.1-4.95,11.04-11.04,11.04H11.04c-6.1,0-11.04-4.95-11.04-11.04v-27.58c0-6.1,4.95-11.04,11.04-11.04h3.81l3.24-6.46ZM49.69,33.12c0-9.15-7.4-16.57-16.55-16.58s-16.57,7.4-16.58,16.55c0,9.15,7.4,16.57,16.55,16.58,0,0,0,0,0,0,9.13-.01,16.53-7.41,16.54-16.54h.03Z"/>
  </g>
</svg>