<?xml version="1.0" encoding="UTF-8"?>
<svg id="Capa_1" data-name="Capa 1" xmlns="http://www.w3.org/2000/svg" viewBox="0 0 481.67 661.08">
  <defs>
    <style>
      .cls-1 {
        fill: #fff;
      }

      .cls-2 {
        fill: #00b332;
      }
    </style>
  </defs>
  <path class="cls-1" d="M240.92,608.56c-10.74,0-19.48-6.49-22.81-16.93-2.25-7.09-4.13-13.8-5.94-20.28-3.6-12.88-6.99-25.04-12.83-38.1-16.57-37.06-42.6-70.9-67.77-103.62-20.31-26.4-41.3-53.69-57.72-83.01-26.94-48.09-33.7-102.6-19.05-153.5,14.12-49.04,47.15-89.83,93-114.85,30-16.37,61.5-24.67,93.64-24.67,68.19,0,132.35,38.07,167.43,99.37,16.44,28.73,25.26,61.05,25.5,93.47.26,35.53-9.36,70.17-28.62,102.95-17,28.94-36.77,54.97-55.89,80.15-33.65,44.31-65.44,86.17-81.83,141.4-.22.74-.84,3.46-1.35,5.65-1.22,5.29-2.73,11.88-4.21,16.5-2.73,8.54-10.23,14.57-19.12,15.37-.82.07-1.64.11-2.44.11Z"/>
  <path class="cls-2" d="M154.99,91.43c-90.34,49.3-118.02,158.65-68.05,247.86,36.24,64.7,95.31,118.96,126.11,187.84,9.33,20.86,12.69,38.96,19.37,59.95,1.79,5.63,6.03,6.75,9.61,6.43,2.87-.26,5.3-2.26,6.18-5,2.05-6.42,4.55-18.75,5.46-21.84,26.87-90.59,93.37-146.92,139.17-224.88C486.6,182.13,314.08,4.62,154.99,91.43Z"/>
  <g>
    <path class="cls-1" d="M221.17,171.2c11.23-1.54,16.76,12.8,6.33,19.47-15.83,10.12-33.82,18.3-49.84,28.28-2.79,1.81-4.71,4.86-4.93,8.21v77.32c.39,5.36,4.03,9.48,9.42,10.18l118.95-.23c4.1-1.13,7.34-4.66,7.84-8.92l.26-77.32c-.28-4.34-1.82-7.15-5.45-9.5-15.73-10.18-33.89-18.27-49.84-28.29-10.69-7.13-3.34-22.4,8.66-18.7l61.91,35.81c2.71,1.68,4.67,4.56,4.83,7.8v111.85c-.52,3.9-3.44,7.23-7.22,8.25-53.2.88-106.55.11-159.81.38-5.6-.42-9.54-3.97-9.93-9.66v-110.56c.26-2.53,1.35-4.67,2.97-6.57,20.63-12.68,41.89-24.43,62.73-36.79.95-.38,2.11-.87,3.12-1.01Z"/>
    <path class="cls-1" d="M234.78,254.45c-.47-.56-1.65-1.14-2.24-1.75-8.7-8.99,1.07-23.72,12.9-18.82,6.82,2.82,9.24,11.71,4.75,17.62-1.01,1.34-3.86,3.02-3.96,4.55l4.9,18.03c-.07,2.81-2,4.73-4.78,5.01-2.59.26-8.5.28-11.06-.03-3.3-.39-4.91-2.73-4.48-5.96.67-4.97,4.09-11.47,4.55-16.33.09-1,.09-1.53-.58-2.33Z"/>
  </g>
</svg>