<?xml version="1.0" encoding="UTF-8"?>
<svg id="Capa_2" xmlns="http://www.w3.org/2000/svg" viewBox="0 0 1601.53 1601.53">
  <defs>
    <style>
      .cls-1 {
        fill: #e5e5e5;
      }

      .cls-2 {
        fill: #32b141;
      }

      .cls-3 {
        fill: #0f1418;
      }
    </style>
  </defs>
  <g id="Capa_2-2" data-name="Capa_2">
    <rect class="cls-3" width="1601.53" height="1601.53" rx="280.42" ry="280.42"/>
    <g>
      <path class="cls-2" d="M1299.36,526.59v599.21c0,29.59-23.59,54.01-53.18,54.49-.31,0-.63,0-.94,0H388.18c-.32,0-.63,0-.94,0-29.58-.48-53.18-24.9-53.18-54.49v-599.21c.96-19.17,11.54-36.64,28.23-46.35l327.03-190.36c37.97-22.1,85.61,5.29,85.61,49.22,0,10.24-2.75,20.08-7.72,28.63-4.97,8.55-12.17,15.81-21.06,20.87l-271.09,154.28c-14.85,8.45-24.96,23.01-27.9,39.49-.21,1.18-.38,2.36-.52,3.56-.25,2.14-.37,4.32-.37,6.5l.37,354.51.06,61.04c0,9.28,2.24,18.04,6.18,25.77,9.42,18.48,28.62,31.13,50.77,31.13h626.1c22.15,0,41.36-12.65,50.77-31.13,3.94-7.73,6.17-16.49,6.18-25.77l.06-61.04.37-354.51c0-2.19-.12-4.36-.37-6.5-.14-1.2-.31-2.38-.52-3.56-2.94-16.48-13.05-31.05-27.9-39.49l-271.09-154.28c-8.9-5.06-16.09-12.32-21.06-20.87-4.97-8.55-7.72-18.39-7.72-28.63,0-43.93,47.64-71.33,85.61-49.22l327.03,190.36c16.69,9.71,27.27,27.18,28.23,46.35Z"/>
      <path class="cls-1" d="M847.65,746.79c0,.47.02.93.07,1.39.07.75.24,1.49.44,2.21l.36,1.29,23.29,83.16h0s.95,3.4.95,3.4c.51,1.84.84,3.74.94,5.65.01.29.02.57.02.81,0,14.47-11.73,26.19-26.19,26.19h-58.83c-14.47,0-26.19-11.73-26.19-26.19,0-.24,0-.51.02-.81.1-1.91.43-3.81.94-5.65l.95-3.4h0s23.29-83.16,23.29-83.16l.36-1.29c.2-.73.37-1.46.44-2.21.04-.46.07-.92.07-1.39,0-3.68-1.41-7.03-3.71-9.54-.71-.77-1.54-1.43-2.41-2.02-.33-.23-.67-.46-1-.7-7.85-5.6-14.36-12.94-18.97-21.47-4.83-8.93-7.57-19.15-7.57-30s2.74-21.08,7.57-30c5.52-10.22,13.79-18.75,23.8-24.59,9.34-5.45,20.21-8.58,31.81-8.58s22.47,3.13,31.81,8.58c10.01,5.85,18.28,14.37,23.8,24.59,4.83,8.92,7.57,19.14,7.57,30s-2.74,21.08-7.57,30c-4.61,8.53-11.12,15.87-18.97,21.47-.33.24-.66.47-1,.7-.87.59-1.7,1.25-2.41,2.02-2.31,2.51-3.71,5.86-3.71,9.54Z"/>
    </g>
  </g>
</svg>